<?xml version="1.0" encoding="utf-8"?>
<!-- Generator: Adobe Illustrator 27.3.1, SVG Export Plug-In . SVG Version: 6.00 Build 0)  -->
<svg version="1.1" baseProfile="basic" id="Layer_1"
	 xmlns="http://www.w3.org/2000/svg" xmlns:xlink="http://www.w3.org/1999/xlink" x="0px" y="0px" viewBox="0 0 2619 831"
	 xml:space="preserve">
<style type="text/css">
	.st0{fill:#FFFFFF;fill-opacity:0.75;stroke:#2B2B2B;}
</style>
<path class="st0" d="M25.5,347.7L25.5,347.7L25.5,347.7c-3.3-28.8,5.5-58,25.9-86c32.9-41.7,100.5-74.1,182.8-96.3
	c82.4-22.3,179.4-34.4,271.1-35.7c149.9-2.1,292.5,18.2,434.3,38.4c31.7,4.5,63.4,9,95.1,13.3c323.4,43.4,663.5,60.9,1006.8,51.8
	l-0.1-0.5l0.1,0.5c30.1-0.8,61.2-2.9,92.7-5.1c21.6-1.5,43.2-2.9,64.8-4c53-2.6,105.2-2.9,152.9,5.4
	c61.3,11.2,114.4,29.9,154.1,54.2c39.7,24.4,64.6,53.5,72.6,84.7c6.3,34.4-10.1,69.1-41.2,101.8c-31.1,32.7-77,63.5-129.5,90.1
	l0.2,0.4l-0.2-0.4c-159.4,80.8-378,131.3-600.6,156.9s-451.2,27.9-675.5,25.1c-239.7-3-485.8-12.7-690.2-65.8
	c-123.3-32.8-225.6-79.8-298-137.1C71,481.9,30.6,416.2,25.5,347.7z"/>
</svg>
