<?xml version="1.0" encoding="utf-8"?>
<!-- Generator: Adobe Illustrator 27.3.1, SVG Export Plug-In . SVG Version: 6.00 Build 0)  -->
<svg version="1.2" baseProfile="tiny" id="Layer_1" xmlns="http://www.w3.org/2000/svg" xmlns:xlink="http://www.w3.org/1999/xlink"
	 x="0px" y="0px" viewBox="0 0 3440 1440" overflow="visible" xml:space="preserve">
<path fill="none" stroke="#FFFFFF" stroke-miterlimit="10" d="M2583.9,906c0,59.7,0,119.3,0.1,179c0,3.4-0.7,4.1-4.1,4.1
	c-191.3-0.1-382.6-0.1-573.9-0.1c-2.3-1-4.7-2-7,0c-379.5,0-758.9,0-1138.4,0.1c-3.7,0-4.6-0.8-4.6-4.6
	c0.1-215.4,0.1-430.9,0.1-646.3c2.2-0.9,3.7,0.8,5.5,1.5c1.2,0.4,2.4,0.5,2.9-0.9c0.5-1.1-0.5-1.7-1.2-2.4c-2.1-1.8-4.5-2.6-7.2-2.2
	c0-26.6,0.1-53.2-0.1-79.8c0-3.9,1.2-4.2,4.5-4.2c65.5,0.1,131.1,0.1,196.6,0.1c1.1,1.7,1.4,3.7,2.6,5.3c0.8,1.1,1.5,3,3.3,2.1
	c1.9-0.9,1-2.4,0.4-3.8c-0.5-1.2-1.5-2.3-0.3-3.6c358.3,0,716.6,0,1074.9,0c0.8,1.3-0.8,3.2,0.9,4.1c1.9,1,3-0.9,4.3-1.8
	c1.2-0.9,2.6-1.5,3.8-2.4c89,0,178,0,267,0c0.2,0.3,0.2,0.6,0.1,0.9c-0.6,1.5-3.9,3.1-1,4.6c1.9,1,4.9,0,5.9-2.8
	c0.3-0.9,0.2-2,1-2.7c53.3,0,106.7,0,160-0.1c3.4,0,4.1,0.7,4.1,4.1c-0.1,181.6-0.1,363.2-0.1,544.9c-1.8,1.7-4.2,1.6-6.3,2.5
	c-1.1,0.5-2.2,1.1-1.7,2.5c0.4,1.2,1.5,1.1,2.5,1C2580.2,904.9,2582.3,904.3,2583.9,906z M856.1,438.1c1.9,1,3.8,2,5.6,3.1
	c1.2,0.8,2.1,0.6,3-0.3c0.9-1,1.9-2.1,1.7-3.4c-0.5-2.8-8-5.2-10.3-3.4C856.1,435.4,856.1,436.7,856.1,438.1z M2583.9,899
	c-2.6-0.3-4.9,0.8-7.3,1.3c-2.4,0.5-3.2,2.3-2.5,4.5c0.6,2.1,2,2.2,3.9,1.7c1.9-0.5,3.9-0.4,5.9-0.5
	C2583.9,903.6,2583.9,901.3,2583.9,899z M1057.1,350.1c-1.2,3.5,1.7,5.4,3,7.9c0.8,1.5,1.7,2.5,3.5,1.2c1.4-1.1,3.3-1.8,2-4.3
	c-0.8-1.6-2.5-2.8-2.4-4.8C1061.1,350.1,1059.1,350.1,1057.1,350.1z M2413.9,350.1c-0.9,0.7-1.8,1.4-2.8,2c-1.3,0.8-1.3,1.9-0.7,3
	c0.5,0.9,0.2,2.4,1.8,2.7c4,0.7,8.3-3.5,7.7-7.6C2417.9,350.1,2415.9,350.1,2413.9,350.1z M2138,350.1c-1.1,1.7-2.7,3.1-0.3,5.4
	c2.5,2.4,3.3-0.4,4.8-1.1c1.9-1,3.5-2.4,4.5-4.3C2144,350.1,2141,350.1,2138,350.1z M2006,1088.9c-2.3-1.2-4.7-5.4-7,0
	C2001.3,1088.9,2003.6,1088.9,2006,1088.9z M2000.9,513.8c-4.5-0.7-3.2,2.7-3.9,4.5c-1.1,2.8-1.9,5.9-2.9,9.2
	c3.5-0.6,6.5-1.1,9.6-1.6c3.1-0.4,5-2.3,4.7-5.2c-0.3-3.5-3.5-0.7-5.3-1.8C2003,517.2,2005.4,514.4,2000.9,513.8z M1129.1,589.8
	c0.7-1.1,1.6-2.7,0-3.4c-1.4-0.7-3.3-2.4-4.9-0.4c-1.3,1.7-2.6,2.2-4.7,1.4c-1.3-0.5-2,0.7-2.5,1.8c-1.4,3.3,1.1,5.6,6.7,5.8
	C1127.6,595.6,1127.8,592.1,1129.1,589.8z M2005.9,946.7c0.2-3.5-2.6-3-4.5-2.7c-2.8,0.5-7.1-1-7.4,4.1c-0.2,2.6,1.5,2.9,4,2.7
	C1999.8,948.3,2005.6,952.8,2005.9,946.7z M1956.1,953.8c-1.8,0.8-3.7,1.3-5.6,1.9c-1.6,0.6-2.5,1.5-1.5,3.4
	c0.8,1.4,1.2,3.3,3.5,2.6c2.2-0.7,4.4-1.5,6.5-2.3c0.9-0.4,1.9-0.9,1.5-2.2C1959.7,955.2,1959.8,952.1,1956.1,953.8z M1973.6,948.8
	c-2.6,0.2-2.8,1.8-2.5,3.8c0.3,2.2,1.6,3,3.8,2.3c1.4-0.4,2.8-0.9,4.3-1c2.3-0.1,4-0.8,3.7-3.4c-0.3-2.7-2.5-2.6-5.4-2.6
	C1976.7,948.1,1975.2,948.7,1973.6,948.8z M1121.3,470.6c-1.1-2.9-0.9-6.9-4.6-8c-1.1-0.3-4.8,0.8-3.9,3.2c1.1,2.9,0.9,7.2,5.5,8.4
	C1119.1,472.8,1122.3,473.4,1121.3,470.6z M1104.6,431.7c-1.4-2.8-1-7.3-5-8.1c-1.5-0.3-4.4,1.3-3.6,3.6c1,2.8,1.7,6.3,5.2,8
	C1102.4,433.9,1105.6,433.8,1104.6,431.7z M1931.7,1040.8c0.2,2,5.5,7.3,7.1,7c1.8-0.4,4.1-2.1,3.5-3.4c-1.4-2.8-3.9-5-5.7-7.1
	C1934.9,1037.2,1931.6,1040,1931.7,1040.8z M1059.8,564.7c-2.5-0.6-3.6,3-3.1,4c1.4,3.2,5.1,4,8.1,4.9c2.4,0.8,2.1-2.4,3.4-4.5
	C1065.7,567,1062.8,565.4,1059.8,564.7z M1086.5,407.7c0,2.2,4.3,8.4,5.5,7.8c1.4-0.7,4.4-0.8,3.5-3.2c-1.1-2.8-1.8-6.2-4.9-8
	C1089.1,405.6,1086.5,405.2,1086.5,407.7z M1919.5,987.5c-0.6,2.9,3,3.3,4.1,2.9c3.3-1.2,3.2-5,4.1-7.8c0.7-2.1-1.9-2.7-3.8-3.5
	C1921,981,1920.1,984.4,1919.5,987.5z M1084,581.8c2.8,0.1,3.8-3,3.4-4c-1.2-3.4-5-3.5-7.9-4.4c-2.8-1-2.2,2.2-3.2,3.3
	C1076.2,578,1081.9,581.8,1084,581.8z M1083.1,387.3c-1.3-2.3-4.1-2.2-5.5,0c-1.1,1.8,2.5,9.6,4.5,9.5c1.8-0.1,3.5-0.9,4-3.6
	C1085.2,391.4,1084.3,389.3,1083.1,387.3z M1112.9,450.8c-0.8-2.8-0.7-6.7-4.4-7.5c-1.5-0.3-4.4,0.8-3.9,2.8c0.7,3,1.8,6.1,4.3,8.7
	C1110.5,453.4,1113.6,453.4,1112.9,450.8z M1096.4,584.3c1,3.9,4.9,3.9,7.9,4.5c2.3,0.5,2.8-1.8,3.1-3.6c0.2-1.2-6.5-4.7-8.8-4.6
	C1096.9,581.1,1096,583,1096.4,584.3z M2070.1,420.6c1.2-1.3,1.9-2.2,0.3-3.7c-1.3-1.1-2.5-2.6-4.3-1.2c-1.6,1.2-2.9,2.7-4.3,4.1
	c-0.8,0.8-1.8,1.7-0.6,2.9c1,1,2.1,2,4.1,3.8C2066.9,424.4,2068.4,422.4,2070.1,420.6z M1950.3,1051.6c-1.6,1-4.3,2.5-3.5,4.1
	c1.4,2.6,3.5,5.5,6.8,6c1.8,0.2,3-1.6,3.7-3.2C1957.3,1057.3,1950.9,1051.2,1950.3,1051.6z M1048.7,560.4c0.4-1.3-5.6-5.2-7.7-5.2
	c-2.3,0-3.7,2.4-3.4,3.5c0.9,3.7,5.1,3.4,7.3,5.2C1047.6,564,1048.2,562.1,1048.7,560.4z M1067.3,369.9c-0.1,2,4,8.3,5.2,7.8
	c1.5-0.6,4.4-0.7,3.7-2.9c-0.9-3-2-6.2-4.8-8.3C1069.7,367.6,1067.4,367.5,1067.3,369.9z M1931.1,969.2c0,2.1,1.5,3.2,3.1,4.1
	c0.7,0.4,7.5-5.3,7.4-6.1c-0.3-1.9-1.4-3.2-2.9-4.1C1937.1,962.9,1931.2,967.7,1931.1,969.2z M2028,942.9c-2-0.8-4-0.8-6,0
	c-2.3,0.2-5.3-0.9-5,3.3c0.2,3.9,3.1,2.5,5.1,2.7c1.9,0.2,3.9,0,5.9,0C2028.7,946.9,2028.7,944.9,2028,942.9z M1962.9,1068.7
	c0.8,3.2,4.1,4.6,6.8,5.8c1.7,0.7,3.1-1.6,3.9-3.2c0.6-1.2-5.2-5.9-7.8-6.1C1964.4,1065.6,1962.5,1067.1,1962.9,1068.7z
	 M1929.5,1027.5c-1.2-2.7-1-6.9-5.1-7.4c-1.7-0.2-3.9,1-3.2,3.3c0.8,2.8,1.5,6,4.6,7.5C1927.5,1029.9,1930.4,1029.6,1929.5,1027.5z
	 M2422.8,931.9c2.8,0.2,4.4-1,4.1-4c-0.3-3.1-2.1-3.1-4.6-2.3c-1.2,0.4-2.6,0.3-3.9,0.3c-2.8,0.2-2.7,1.8-2,3.8
	c0.8,2.5,2.9,2.2,4.4,2.2C2421.8,931.9,2422.3,931.9,2422.8,931.9z M883.6,449.7c-0.8-3.2-4.1-4.5-7-5.3c-1.7-0.5-3.2,1.3-3.3,3.4
	c0,1.3,6,6,7.7,5.9C882.8,453.2,883.9,450.8,883.6,449.7z M987.8,526.1c-0.3,1,6.2,5.9,7.4,5.6c2-0.5,2.5-2.5,3.2-4.1
	c0.4-0.9-5.7-5.3-7.5-5.3C989.2,522.8,988.3,524.3,987.8,526.1z M2130.3,365.2c2.1-1.7,0.5-2.7-0.6-3.9c-1.2-1.2-2.3-2.5-4-0.5
	c-1.3,1.5-2.8,2.8-4.2,4.2c-0.7,0.7-1.6,1.4-0.6,2.5c0.9,0.9,1.6,2.1,3.5,2.4C2126.2,368.5,2128.3,366.9,2130.3,365.2z M2138,945.9
	c1.4,1.7,3.3,0.8,5,1c1.5-1.2,3.5,0.2,5-1c-0.5-2,1.4-5.2-1.9-5.8c-2.6-0.4-5.6-1.2-8.1,0.8C2137.2,942.6,2137.2,944.3,2138,945.9z
	 M2296.9,938.6c-0.1,2.6,1.1,3.9,3.5,3.2c2.5-0.7,6.4,0.6,6.5-4c0.1-3.5-2.4-2.8-4.5-2.9C2299.8,934.9,2297,934.5,2296.9,938.6z
	 M2356.9,934.9c0,2.5,1.3,3.5,3.4,2.9c2.5-0.7,6.3,0.6,6.7-3.9c0.2-3.4-2.1-3-4.4-3C2359.8,930.9,2356.8,930.6,2356.9,934.9z
	 M2495.5,918.2c0.3,5.4,3.9,2.6,6.3,2.7c2.9,0.2,4.3-1.2,4-4.1c-0.3-3-2.1-2.8-4.1-2C2495.3,915.7,2495.4,915.7,2495.5,918.2z
	 M2053.1,429.4c-1.8-0.5-7.2,4.2-7,6.1c0.2,2,1.6,3.2,3.3,4c0.6,0.3,6.9-5.9,7-7.1C2055.7,431.3,2054.8,429.8,2053.1,429.4z
	 M1923,1003.9c0.1-2.1,0-4-3-4c-3,0-3.1,1.8-3,3.9c0,1.5,0,3,0,4.5c0,1.2,0.3,2.3,1.8,2.5c1.4,0.2,2.7,0.1,3.6-1.1
	c0.9-1.3,0.5-2.9,0.6-4.3C1923,1004.9,1923,1004.4,1923,1003.9z M1024,544.4c-1.9,0.5-3.7,2.5-3.1,3.9c1.1,3,4.4,4.4,7.2,5.3
	c2,0.6,2.4-2.6,3.5-3.9C1031.4,548.2,1025.4,544,1024,544.4z M2041.6,449c1.5-1.6,1.5-2.8-0.5-3.9c-1.5-0.8-2.9-2.5-4.5-0.1
	c-0.9,1.4-1.9,2.7-3,3.9c-0.8,1-1.6,1.8-0.3,2.9c1.1,0.9,1.8,2.4,3.7,2.7C2038.4,452.8,2039.9,450.8,2041.6,449z M2386.9,932
	c-0.1-1.9-0.8-3.7-2.7-2.9c-2.5,1.1-6.8-1.2-7.3,3.7c-0.3,3.8,2.5,3,4.7,3.1C2384.5,936.1,2387.1,936,2386.9,932z M2402.9,933.9
	c2.6,0.1,4.1-0.9,4-3.7c-0.1-3.4-2.1-3.1-4.5-2.4c-0.9,0.3-2,0-3,0.1c-1.2,0.1-3-0.5-3.3,1.3c-0.3,1.5,0.4,3,1.4,4.1
	c1,1.1,2.5,0.4,3.6,0.6C2401.9,933.9,2402.4,933.9,2402.9,933.9z M916.6,471.5c-0.6-3.4-4.2-4.5-6.8-5.6c-1.8-0.8-3.3,2.1-3.2,3.5
	c0.3,3.7,4.1,4,6.3,5.5C915.7,475,916.9,472.9,916.6,471.5z M2446.6,927.1c0.3-1.7-0.5-4.7-3.6-4.1c-2.5,0.5-6.1-0.5-6.8,3.1
	c-0.5,2.3,1.1,4.1,4.7,3.7C2442.1,928.5,2445.9,930.5,2446.6,927.1z M2523.7,917.2c1.8-0.6,2.5-1.4,1.7-3.3
	c-0.6-1.5-0.9-3.4-3.3-2.9c-1.3,0.3-2.6,0.8-3.9,0.8c-2.1,0.1-3.9,0.4-3.2,3c0.4,1.7,0.6,4.3,3.5,3
	C2520.5,918,2522.1,917.7,2523.7,917.2z M2564.6,907.3c0.2-1.3,0-4.4-2.5-3.8c-2.8,0.6-6.8-0.7-7.9,3.3c-0.3,1.2,0.2,3.7,3.3,4.1
	C2559,908.5,2563.9,912.1,2564.6,907.3z M2112.6,373.9c-3.1,0.7-5.9,2.7-7,5.7c-0.6,1.6,1.1,3.4,2.9,4.1c1,0.4,6.9-5.1,7.1-6.9
	C2115.1,375.6,2113.9,373.6,2112.6,373.9z M958.6,499.5c-2.1,0.3-2.7,2.2-3.3,3.8c-0.4,1.2,5.5,5.8,6.9,5.4c1.8-0.5,3-1.9,3.6-3.5
	C965.8,503.9,959.9,499.3,958.6,499.5z M2284.1,405c-1.9,0.8-1.8,2.1-0.9,3.6c0.7,1.2,1.1,2.9,3.2,1.9c1.8-0.9,3.6-1.5,5.4-2.3
	c1.5-0.6,1.9-1.7,1-3.1c-0.7-1.2-0.9-3-3.3-2.7C2287.9,403.1,2286.1,404.1,2284.1,405z M971.5,514.5c-0.1,1.2,4.6,5.2,6.5,5.4
	c2.2,0.2,3.4-1.1,3.9-3c0.3-1.1-5.4-6.1-7-6.2C974.3,510.7,971.6,513.6,971.5,514.5z M2085.6,404.7c-0.9-1.6-2.2-3.8-3.9-3.2
	c-2.7,1.1-5.2,3.3-6,6.1c-0.4,1.4,2,3.1,3.7,3.8C2080.8,411.4,2086,405.5,2085.6,404.7z M1004.6,537c0.9,3.3,4.2,4.7,7,5.5
	c1.7,0.5,3.4-2.2,3-3.6c-1-3.3-4.3-4.3-7.7-5.7C1006.1,534.4,1004.3,535.9,1004.6,537z M2284.9,941.9c0.6-0.3,1.4-0.5,1.6-0.9
	c1.5-4,0-5.3-5.8-5.1c-1.9,0.1-3.8-0.1-3.8,2.7c0,2.1-0.5,4.6,3,4.4C2281.4,941.7,2283.4,943.1,2284.9,941.9z M1983.9,1077.2
	c-2-0.6-3.9,1.2-3.7,3c0.4,3.7,4.3,4.2,6.9,5.4c2.1,1,2.7-1.7,3.6-3.6C1989.3,1079.4,1986.7,1077.9,1983.9,1077.2z M893.8,455.3
	c-1.9-0.5-3.8,1.4-3.5,3.2c0.6,3.5,4,4.7,6.8,5.7c2.1,0.7,2.1-2.4,3.6-3.6C899,458,896.7,456.1,893.8,455.3z M2090.8,394.2
	c1.2,1.3,1.9,3.8,4.4,3c2.2-0.7,5.8-5.9,5-7.1c-0.8-1.2-1.7-2.4-3.2-2.7C2095.4,387.4,2090,393.3,2090.8,394.2z M944.5,489.4
	c-1.3-1-2.9-1.8-4.2,0.3c-1.1,1.8-1.3,3.3,0.6,4.7c1.2,0.9,2.4,1.7,3.6,2.6c1,0.8,2,1.1,3,0.1c1-0.9,1.7-2,2-3.4
	C948.8,491.2,946.3,490.7,944.5,489.4z M2465.9,923c-0.6-6.1-4.5-1-6.8-1.8c-2.5-1-3.3,1-3.2,3.5c0.1,2.6,1.3,3,3.6,2.5
	c1.8-0.3,3.6-0.1,5.5-0.1C2466.5,925.9,2466.9,924.6,2465.9,923z M2475.9,921.8c0,1.9,0.6,3.9,2.6,2.9c2.4-1.3,6.9,1.5,7.4-3.6
	c0.3-3.8-2.4-3.1-5.8-3.2C2478.4,917.8,2475.8,917.9,2475.9,921.8z M2534.9,911.8c0,1.9,0.8,4,2.6,2.8c2.4-1.5,7,1.7,7.5-3.2
	c0.3-3.1-1.8-3.9-3.2-3.6C2537.9,908.2,2535,907.9,2534.9,911.8z M2016.2,476.9c-3.7,0.6-3.9,4.4-4.9,7.1c-0.9,2.3,2.2,3.4,3.4,3.1
	c3.2-0.7,3.5-4.3,5.1-6.8C2019.3,478.4,2017.8,476.6,2016.2,476.9z M2059,941.9c-2,5.4-1.3,6.2,4.9,6c1.5-0.1,3.7,0.6,3.9-1.7
	c0.2-1.8,1.4-4.4-1.8-5.2C2063.8,942.3,2061.2,940.6,2059,941.9z M2181,939.9c-1.7,0.1-3.9-0.5-4,2.4c0,1.3-0.4,3,1.3,3.3
	c2.7,0.5,5.7,1,8.3-0.3c2.5-1.3-0.3-3.6,0.4-5.4C2185,939.2,2183,939.2,2181,939.9z M2362.4,370.7c-2.5,1.2-7,0.3-7.1,4.7
	c0,1.1,0.3,4.2,2.6,3.3c2.7-1,6.2-1,7.8-4.2C2364.4,373.1,2364.4,369.8,2362.4,370.7z M1124.7,482.5c-1.6,0.5-3.9,0.2-4.2,2.6
	c-0.3,1.8,3.2,7.8,4.3,7.4c1.6-0.5,3.8-0.3,4-1.9C1128.9,487.7,1125.8,482.1,1124.7,482.5z M2158,945.9c2.3,0,4.5-0.1,6.8,0
	c2.3,0.1,3.3-0.8,3.3-3.2c0-2.2-1.1-2.9-3.1-2.9c-2.3,0.1-4.6,0-6.9,0C2157.2,941.9,2157.2,943.9,2158,945.9z M2030.2,463
	c0.6-2-2.7-3.4-3.5-3.1c-3.1,1-4.5,4.2-5.3,7.1c-0.4,1.6,1.4,2.7,3.4,3.1C2027.8,468.7,2029.3,465.8,2030.2,463z M2346.8,382
	c0.2-1.6-0.7-4.1-2.4-3.5c-2.7,0.9-6.7,0.5-7.3,4.6c-0.2,1.6,0.3,3.3,2.6,3.8C2341.6,384.6,2346.2,386.1,2346.8,382z M2272.4,410.7
	c-2.7,1.1-6.4,1.2-7.6,4.4c-0.4,1.1,0.9,4.3,2.9,3.7c2.7-0.8,6.5-0.7,7.4-5C2274.2,412.7,2274.5,409.8,2272.4,410.7z M933,482.6
	c0.1-1.3-5.1-5.7-6.5-5.3c-2,0.5-4.4,2.3-3.7,3.8c1.2,2.6,4.3,3.8,6.9,5C931.5,485.4,932.8,484.4,933,482.6z M2048,945
	c0-3.9-2.7-3.1-4.8-3c-2.2,0.1-5.3-1.1-5.2,3.1c0.1,3.9,3.1,2.4,5,2.9C2045.1,947.7,2047.9,948.9,2048,945z M2246.9,937.9
	c-2.3,0-4.6,0-6.9,0c-1.9,0-3.1,0.5-3.1,2.8c0,2.3,0.8,3.4,3.1,3.3c2.3-0.1,4.6,0,6.9,0C2247.7,941.9,2247.7,939.9,2246.9,937.9z
	 M2106.8,488.3c-0.2,1.3,0.8,4.3,3.2,3.5c2.5-0.9,6.3-1.1,6.6-4.9c0.1-1.2-0.6-3.4-3.2-3.1C2111.1,485,2107.3,484.5,2106.8,488.3z
	 M2134.4,479.8c0.4-1-0.5-4.2-2.7-3.9c-2.9,0.3-6.3,1-7.3,4.2c-0.5,1.5,0.8,3.5,3.3,3.9C2130,482.8,2133.3,482.6,2134.4,479.8z
	 M2108,944c0-3.9-2.7-3-4.9-3c-2.2,0-5.3-1-5.1,3.2c0.2,3.9,3.1,2.4,5,2.8C2105.2,946.7,2108,947.9,2108,944z M2087,946.9
	c1.4-2.1,2.1-4.5-0.6-5.8c-4.9-2.3-8.3,0.2-8.4,5.8C2081,947.7,2084,947.7,2087,946.9z M2401.6,360.2c0.3-1.1,0-4.3-2.6-3.8
	c-2.7,0.6-6.2,0.7-7.2,4c-0.3,1.2,0,3.7,2.6,4C2396.9,363.1,2400.6,363.5,2401.6,360.2z M2184,452.2c-2.7,0.4-5.8,0.9-6.5,4.1
	c-0.3,1.2,0,4.5,2.3,4c2.8-0.6,5.8-1.7,7.5-4C2186.9,453.9,2186.3,451.8,2184,452.2z M2219.5,435.4c-1.8-0.2-7.6,3.9-7.2,5
	c0.5,1.5,1,3.7,3,3.2c2.7-0.7,5.8-1.1,7.4-4C2221.6,438.1,2221.8,435.7,2219.5,435.4z M2226.9,938.9c-2.7-0.8-5.3-0.8-8,0
	c-2.7,0.5-1.9,2.5-1.9,4.2c0,1.1,0.9,1.8,1.9,1.7c2.7-0.2,5.5,1,7.9-0.9C2227.7,942.3,2227.7,940.6,2226.9,938.9z M2341.9,932.9
	c-1.8,0.4-4.7-1.2-4.9,2.3c-0.1,1.4-0.4,2.9,1.7,3.6c5.3,1.8,8.2-0.3,8.3-5.9C2345.3,932.2,2343.6,932.2,2341.9,932.9z
	 M2321.9,939.9c1.8-0.4,4.7,1.2,4.9-2.3c0.1-1.4,0.4-2.9-1.7-3.6c-5.3-1.8-8.2,0.3-8.3,5.9C2318.6,940.7,2320.3,940.7,2321.9,939.9z
	 M2205.9,944.9c0.3,0,0.7,0,1,0c0.7-1.7,0.7-3.3,0-5c-7.7-2.8-9.9-1.7-10,5C2200,945.7,2203,945.7,2205.9,944.9z M2383.4,367.6
	c0.4-0.8-0.1-3.8-2.5-4.1c-2.2-0.3-7.8,2.9-7.4,4.4c0.4,1.4,0.1,3.6,2.6,3.7C2378.6,370.4,2382,370.3,2383.4,367.6z M2262.9,942.9
	c1.3,0,2.7,0,4,0c0.7-1.7,0.7-3.3,0-5c-7.7-2.8-9.9-1.7-10,5C2258.9,943.7,2260.9,943.7,2262.9,942.9z M2118,940.9
	c0.5,2-1.4,4.8,1.8,5.9c5.4,1.8,8.1-0.2,8.2-5.9C2124.6,940.2,2121.3,940.2,2118,940.9z M2236.7,427.5c-2.6,0.9-6.2,1.2-6.9,4.5
	c-0.2,1.1,0.5,4,3.1,3.4c2.8-0.7,5.9-1.3,6.9-4.7C2238.9,429.4,2238.6,426.8,2236.7,427.5z M2254.2,419.4c-2.6,0.8-6.1,1.2-7,4.5
	c-0.3,1.2,0.4,3.4,2.6,3.6c1.4,0.1,7.5-3.6,7.5-4.5C2256.8,421.3,2256.6,418.7,2254.2,419.4z M2002.8,502.4
	c-0.2,2.7,2.2,2.9,3.6,2.8c3.8-0.5,2.8-4.5,4.2-6.9c1.1-1.9-1.3-2.5-2.7-3.1C2006,495.1,2003,499.5,2002.8,502.4z M2318.8,390.2
	c-0.5,1.4,0.4,4,2.8,3.8c2.9-0.2,6-1,7.1-4.2c0.5-1.5-0.5-3.2-2.8-3.6C2323.7,387.7,2319.9,387,2318.8,390.2z M2202.3,443.7
	c-1.1-0.1-7.9,3.7-7.6,4.4c0.7,1.6,0.9,4.3,3.1,3.7c2.6-0.7,5.9-0.9,7.1-3.8C2204.9,446.1,2203.3,443.8,2202.3,443.7z M2149.4,467.8
	c-2.7,0.6-6.2,1.3-7.1,4.5c-0.5,1.7,0.7,4,3,3.5c2.7-0.5,5.5-1.3,6.7-4.2C2151.3,470,2151,467.4,2149.4,467.8z M2081.2,503.1
	c0.4-1.4-0.4-4.3-2.8-3.8c-2.5,0.6-6,0.4-7.1,3.4c-0.4,1.2,0.1,3.7,2.7,4.2C2076.2,505.4,2080.2,506.5,2081.2,503.1z M1131.3,499.4
	c-1.4-0.3-4.7,0.2-4,3c0.5,2.3-0.4,5.9,3.3,6.4c1.4,0.2,3.6-0.1,4.2-2.3C1133.5,504,1134.7,500.3,1131.3,499.4z M2307.6,394.4
	c-2.6,1-6.5,0.7-6.6,4.9c-0.1,2.1,1.5,3.2,3.3,2.6c2.6-0.7,5.6-1.2,6.5-4.5C2310.2,395.8,2309.9,393.6,2307.6,394.4z M2035.2,514.7
	c-0.1,1.8,1.1,4,3.4,3.2c2.3-0.8,6.3,0,6.1-4.2c-0.1-1.1,0-3.7-2.7-3.1C2039.6,511.9,2035.4,510.3,2035.2,514.7z M2089.3,496
	c-0.2,1.2,0.7,4.1,2.7,3.2c2.5-1,6.5-0.4,6.9-4.5c0.1-1.6-0.5-3.3-3-3.6C2093.8,492.9,2089.8,492.3,2089.3,496z M2060,505.4
	c-2.4,0.9-6.5-0.1-6.5,4.1c0,1.2,0.3,4,2.7,3.2c2.5-0.9,6.2-0.3,6.9-4C2062.3,507,2062,504.6,2060,505.4z M2166.2,460.3
	c-2.4,0.8-5.8,0.9-6.4,4.2c-0.3,1.7,0.7,4,3.2,3.2c2.5-0.7,5.6-0.7,6.7-3.9C2168.9,462.1,2168.4,459.6,2166.2,460.3z M1134,517
	c-2.2,0-3.5,1.1-2.7,3c0.8,2.1-0.6,5.9,3.6,6c2.7,0,3.3-1.7,3.2-5.1C1137.9,519.4,1137.6,517,1134,517z M2026.6,518.9
	c0.1-1.3-0.4-4.3-2.9-3.6c-2.4,0.7-6.1-0.4-6.6,3.6c-0.3,2.3,1.3,3.2,3.8,3.2C2022.5,520.8,2026.3,522.7,2026.6,518.9z M1132.1,552
	c-0.1,1.8,0.1,3.6-0.6,5.3c-0.9,2.5,1.1,3.1,2.8,3.5c1.8,0.4,3.5-0.3,3.6-2.3c0.1-2.2,1-4.6-0.8-6.5
	C1135.4,551.3,1133.8,551.3,1132.1,552z M1131.3,577.8c4.3,0.3,2.8-3.6,3.6-5.7c0.9-2.2-0.8-3-2.9-3.3c-4.3-0.6-2.4,3.5-3.8,4.5
	C1127.7,576.3,1129.1,577.7,1131.3,577.8z M1136.1,534c-3.4,0-3.1,2.2-3,4.4c0,2.2-0.6,4.8,3.2,4.7c3.5-0.1,2.6-2.6,2.8-4.4
	C1139,536.4,1139.6,534,1136.1,534z M2118,940.9c3.3,0,6.7,0,10,0C2124.6,939.4,2121.3,939.4,2118,940.9z M2205.9,944.9
	c-3,0-6,0-9,0C2200,946.5,2202.9,946.5,2205.9,944.9z M2087,946.9c-3,0-6,0-9,0C2081,948.5,2084,948.5,2087,946.9z M2219,938.9
	c2.7,0,5.3,0,8,0C2224.3,937.4,2221.6,937.4,2219,938.9z M2059,941.9c2.3-0.4,4.9,0.9,7-1C2063.6,941.3,2061.1,940,2059,941.9z
	 M2022,942.9c2,0,4,0,6,0C2026,941.4,2024,941.4,2022,942.9z M2028,942.9c0,2,0,4,0,6C2029.5,946.9,2029.5,944.9,2028,942.9z
	 M2262.9,942.9c-2,0-4,0-6,0C2258.9,944.5,2260.9,944.5,2262.9,942.9z M2158,945.9c0-2,0-4,0-6
	C2156.4,941.9,2156.4,943.9,2158,945.9z M2181,939.9c2,0,4,0,6,0C2185,938.4,2183,938.4,2181,939.9z M2246.9,937.9c0,2,0,4,0,6
	C2248.5,941.9,2248.5,939.9,2246.9,937.9z M2138,945.9c0-1.7,0-3.3,0-5C2136.5,942.6,2136.5,944.3,2138,945.9z M2284.9,941.9
	c-1.7,0.2-3.6-0.7-5,1C2281.6,942.7,2283.5,943.6,2284.9,941.9z M2321.9,939.9c-1.7,0-3.3,0-5,0
	C2318.6,941.4,2320.3,941.4,2321.9,939.9z M2148,945.9c-1.7,0.2-3.6-0.7-5,1C2144.6,946.7,2146.6,947.6,2148,945.9z M2207,939.9
	c0,1.7,0,3.3,0,5C2208.4,943.3,2208.4,941.6,2207,939.9z M2226.9,938.9c0,1.7,0,3.3,0,5C2228.4,942.3,2228.4,940.6,2226.9,938.9z
	 M2266.9,937.9c0,1.7,0,3.3,0,5C2268.4,941.3,2268.4,939.6,2266.9,937.9z M2341.9,932.9c1.7,0,3.3,0,5,0
	C2345.3,931.5,2343.6,931.5,2341.9,932.9z M2465.9,923c0.2,1.5-0.3,2.8-1,4C2467.7,926.2,2467.3,924.7,2465.9,923z M1132.1,552
	c1.7,0,3.3,0,5,0C1135.4,550.6,1133.8,550.6,1132.1,552z"/>
</svg>
